<svg id="Capa_1" enable-background="new 0 0 512 512" height="512" viewBox="0 0 512 512" width="512" xmlns="http://www.w3.org/2000/svg"><g><g><path d="m0 256c0 141.385 114.615 256 256 256l33.642-256-33.642-256c-141.385 0-256 114.615-256 256z" fill="#fff083"/><path d="m256 0v512c141.385 0 256-114.615 256-256s-114.615-256-256-256z" fill="#ffda2d"/></g><g><g><path d="m194.675 192.083-25.765-15.368-19.552 32.778-32.778-19.552-15.368 25.765 32.778 19.552-19.552 32.778 25.764 15.368 19.552-32.778 32.779 19.552 15.368-25.764-32.778-19.553z" fill="#56696e"/><path d="m376.786 199.673-32.778-19.552 19.552-32.778-25.764-15.368-19.552 32.778-32.778-19.552-15.369 25.764 32.779 19.553-19.552 32.778 25.763 15.368 19.552-32.778 32.778 19.552z" fill="#404a4a"/></g></g><path d="m107.09 329.609 3.028 11.903c14.674 57.695 73.341 92.57 131.036 77.896l40.281-10.245 4.514-94.617-91.837-7.002z" fill="#ffda2d"/><path d="m398.615 255.689-80.726 20.469-58.783 45.215 22.329 87.79 42.258-10.748c57.695-14.674 92.57-73.341 77.896-131.036z" fill="#ffb64c"/><g><path d="m194.111 307.544v85.152c0 34.18 27.709 61.889 61.889 61.889l21.6-155.788-36.6-3.142z" fill="#f2315c"/></g><g><path d="m271 288.048-15 79.234v87.303c34.18 0 61.889-27.709 61.889-61.889v-116.537z" fill="#e20f5a"/></g><g><path d="m241 295.655v71.627h15l11.183-41.945-11.183-33.486z" fill="#e20f5a"/></g><g><path d="m256 291.851v75.431h15v-79.234z" fill="#c8134b"/></g></g></svg>